<?xml version="1.0" encoding="UTF-8" standalone="no"?><!DOCTYPE svg PUBLIC "-//W3C//DTD SVG 1.1//EN" "http://www.w3.org/Graphics/SVG/1.1/DTD/svg11.dtd"><svg width="100%" height="100%" viewBox="0 0 211 390" version="1.1" xmlns="http://www.w3.org/2000/svg" xmlns:xlink="http://www.w3.org/1999/xlink" xml:space="preserve" xmlns:serif="http://www.serif.com/" style="fill-rule:evenodd;clip-rule:evenodd;stroke-linejoin:round;stroke-miterlimit:1.41421;"><path d="M47.97,89.26l-47.35,23.48l68.21,6.31l-20.86,-29.79Z" style="fill:white;fill-rule:nonzero;"/><path d="M70.26,92.17l16.91,-20.24l-31.99,24.13l1.87,2.67l13.21,-6.56Z" style="fill:white;fill-rule:nonzero;"/><path d="M92.82,74.57l26.039,-0.3l11.75,-16.34l-34.659,-54.35l12.72,51.79l0.4,1.08l-34.69,6.16l-10.08,24.07l30.73,-23.17l-2.21,11.06Z" style="fill:white;fill-rule:nonzero;"/><path d="M38.2,373.39l7.4,0l6.11,-85.11l-10.76,28.6l-2.75,56.51Z" style="fill:white;fill-rule:nonzero;"/><path d="M89.21,4.19l13.64,35.9l-9.84,-40.09l-3.8,4.19Z" style="fill:white;fill-rule:nonzero;"/><path d="M0,114.69l10.7,9.37l48.55,-3.89l-59.25,-5.48Z" style="fill:white;fill-rule:nonzero;"/><path d="M75.93,177.52l5.47,-71.33l-17.46,2.38l8.77,12.53l-36.31,2.91l-31.99,55.73l19.15,39.04l52.37,-41.26Z" style="fill:white;fill-rule:nonzero;"/><path d="M197.11,256.71l-2.7,-39.55l-6.21,19.77l8.91,19.78Z" style="fill:white;fill-rule:nonzero;"/><path d="M76.5,196.31l60.99,-15.84l-60.27,6.46l-0.72,9.38Z" style="fill:white;fill-rule:nonzero;"/><path d="M89.14,82.78l2.64,-13.24l-17.06,20.41l14.42,-7.17Z" style="fill:white;fill-rule:nonzero;"/><path d="M62.39,106.36l27.22,-21.58l-31.4,15.61l4.18,5.97Z" style="fill:white;fill-rule:nonzero;"/><path d="M117.17,99.3l-19.52,-18.34l-31.99,25.36l51.51,-7.02Z" style="fill:white;fill-rule:nonzero;"/><path d="M189.85,263.19l0,89.99l20.36,-90.66l-11.45,-11.02l0.8,11.69l-9.71,0Z" style="fill:white;fill-rule:nonzero;"/><path d="M156.359,321.91l5.391,-46.54l-3.96,2.71l-1.431,43.83Z" style="fill:white;fill-rule:nonzero;"/><path d="M150.639,179.12l-74.299,19.3l-4.46,58.22l-2.14,5.37l18.26,21.8l50.09,5.34l11.94,-8.19c0.05,-0.13 0.099,-0.17 0.14,-0.21l0.07,0.07l28.12,-19.26l15.53,-49.39l-43.251,-33.05Z" style="fill:white;fill-rule:nonzero;"/><path d="M187.85,361.2l0,-78.21l-7.54,78.21l7.54,0Z" style="fill:white;fill-rule:nonzero;"/><path d="M40.12,313.41l11.99,-31.88l-45.22,-92.18l33.23,124.06Z" style="fill:white;fill-rule:nonzero;"/><path d="M187.29,239.8l-6.72,21.39l16.37,0l-9.65,-21.39Z" style="fill:white;fill-rule:nonzero;"/><path d="M75.73,180.23l-51.27,40.39l32.92,67.09l12.53,-31.53l5.82,-75.95Z" style="fill:white;fill-rule:nonzero;"/><path d="M64.85,274.33l-5.13,12.9l26.82,47.95l-21.69,-60.85Z" style="fill:white;fill-rule:nonzero;"/><path d="M147.72,345.06l5.889,0l2.131,-65.58l-4.01,2.74c-0.56,4.48 -2.65,39.05 -4.01,62.84Z" style="fill:white;fill-rule:nonzero;"/><path d="M83.42,389.44l9.88,0l-2.8,-43.09l-11.31,-20.21l4.23,63.3Z" style="fill:white;fill-rule:nonzero;"/><path d="M68.9,264.12l-2.93,7.39l24.05,67.46l-3.51,-53.82l-17.61,-21.03Z" style="fill:white;fill-rule:nonzero;"/></svg>